<mxfile host="65bd71144e">
    <diagram name="Page-1" id="MDbb8FU7yuHcan-ELiJg">
        <mxGraphModel dx="497" dy="362" grid="1" gridSize="10" guides="1" tooltips="1" connect="1" arrows="1" fold="1" page="1" pageScale="1" pageWidth="850" pageHeight="1100" math="0" shadow="0">
            <root>
                <mxCell id="0"/>
                <mxCell id="1" parent="0"/>
                <mxCell id="RBc-7hYAv_kwspDDTOig-12" style="edgeStyle=none;shape=connector;curved=1;rounded=1;orthogonalLoop=1;jettySize=auto;html=1;exitX=0.303;exitY=1.002;exitDx=0;exitDy=0;entryX=0.75;entryY=1;entryDx=0;entryDy=0;strokeColor=default;align=center;verticalAlign=middle;fontFamily=Helvetica;fontSize=11;fontColor=default;labelBackgroundColor=default;elbow=vertical;endArrow=classic;exitPerimeter=0;sketch=1;curveFitting=1;jiggle=2;" parent="1" source="RBc-7hYAv_kwspDDTOig-1" target="RBc-7hYAv_kwspDDTOig-2" edge="1">
                    <mxGeometry relative="1" as="geometry">
                        <Array as="points">
                            <mxPoint x="250" y="440"/>
                        </Array>
                    </mxGeometry>
                </mxCell>
                <mxCell id="RBc-7hYAv_kwspDDTOig-13" value="&lt;div&gt;Εσοδα-κερδη&lt;/div&gt;&lt;div&gt;εκδρομης&lt;/div&gt;" style="edgeLabel;html=1;align=center;verticalAlign=middle;resizable=0;points=[];fontFamily=Helvetica;fontSize=11;fontColor=default;labelBackgroundColor=default;sketch=1;curveFitting=1;jiggle=2;rounded=1;" parent="RBc-7hYAv_kwspDDTOig-12" vertex="1" connectable="0">
                    <mxGeometry x="0.4366" y="-20" relative="1" as="geometry">
                        <mxPoint as="offset"/>
                    </mxGeometry>
                </mxCell>
                <mxCell id="RBc-7hYAv_kwspDDTOig-1" value="Διαχείρηση Τουριστικού Γραφείου" style="ellipse;whiteSpace=wrap;html=1;aspect=fixed;fillColor=#fad7ac;strokeColor=#b46504;sketch=1;curveFitting=1;jiggle=2;rounded=1;" parent="1" vertex="1">
                    <mxGeometry x="340" y="230" width="100" height="100" as="geometry"/>
                </mxCell>
                <mxCell id="RBc-7hYAv_kwspDDTOig-6" style="rounded=1;orthogonalLoop=1;jettySize=auto;html=1;exitX=0.75;exitY=0;exitDx=0;exitDy=0;entryX=0.278;entryY=0.06;entryDx=0;entryDy=0;elbow=vertical;entryPerimeter=0;curved=1;sketch=1;curveFitting=1;jiggle=2;" parent="1" source="RBc-7hYAv_kwspDDTOig-2" target="RBc-7hYAv_kwspDDTOig-1" edge="1">
                    <mxGeometry relative="1" as="geometry">
                        <Array as="points">
                            <mxPoint x="260" y="190"/>
                        </Array>
                    </mxGeometry>
                </mxCell>
                <mxCell id="RBc-7hYAv_kwspDDTOig-7" value="&lt;div&gt;Είσοδος&lt;/div&gt;" style="edgeLabel;html=1;align=center;verticalAlign=middle;resizable=0;points=[];sketch=1;curveFitting=1;jiggle=2;rounded=1;" parent="RBc-7hYAv_kwspDDTOig-6" vertex="1" connectable="0">
                    <mxGeometry x="0.1288" y="1" relative="1" as="geometry">
                        <mxPoint y="23" as="offset"/>
                    </mxGeometry>
                </mxCell>
                <mxCell id="RBc-7hYAv_kwspDDTOig-8" style="rounded=1;orthogonalLoop=1;jettySize=auto;html=1;exitX=1;exitY=0.5;exitDx=0;exitDy=0;entryX=0;entryY=0.5;entryDx=0;entryDy=0;curved=1;sketch=1;curveFitting=1;jiggle=2;" parent="1" source="RBc-7hYAv_kwspDDTOig-2" target="RBc-7hYAv_kwspDDTOig-1" edge="1">
                    <mxGeometry relative="1" as="geometry">
                        <Array as="points">
                            <mxPoint x="260" y="260"/>
                        </Array>
                    </mxGeometry>
                </mxCell>
                <mxCell id="RBc-7hYAv_kwspDDTOig-9" value="&lt;div&gt;Διαχειρηση&lt;/div&gt;&lt;div&gt;προσωπικου,&lt;/div&gt;&lt;div&gt;μεσων μεταφορας,&lt;/div&gt;&lt;div&gt;ξενοδοχειων&lt;/div&gt;" style="edgeLabel;html=1;align=center;verticalAlign=middle;resizable=0;points=[];sketch=1;curveFitting=1;jiggle=2;rounded=1;" parent="RBc-7hYAv_kwspDDTOig-8" vertex="1" connectable="0">
                    <mxGeometry x="-0.1789" y="2" relative="1" as="geometry">
                        <mxPoint y="8" as="offset"/>
                    </mxGeometry>
                </mxCell>
                <mxCell id="RBc-7hYAv_kwspDDTOig-10" style="rounded=1;orthogonalLoop=1;jettySize=auto;html=1;exitX=1.017;exitY=0.919;exitDx=0;exitDy=0;entryX=0.078;entryY=0.827;entryDx=0;entryDy=0;entryPerimeter=0;exitPerimeter=0;curved=1;sketch=1;curveFitting=1;jiggle=2;" parent="1" source="RBc-7hYAv_kwspDDTOig-2" target="RBc-7hYAv_kwspDDTOig-1" edge="1">
                    <mxGeometry relative="1" as="geometry">
                        <mxPoint x="190" y="330" as="sourcePoint"/>
                        <mxPoint x="369.5" y="344.29999999999995" as="targetPoint"/>
                        <Array as="points">
                            <mxPoint x="260" y="340"/>
                        </Array>
                    </mxGeometry>
                </mxCell>
                <mxCell id="RBc-7hYAv_kwspDDTOig-11" value="&lt;div&gt;Διαχειρηση&lt;/div&gt;&lt;div&gt;προορισμων&lt;/div&gt;" style="edgeLabel;html=1;align=center;verticalAlign=middle;resizable=0;points=[];sketch=1;curveFitting=1;jiggle=2;rounded=1;" parent="RBc-7hYAv_kwspDDTOig-10" vertex="1" connectable="0">
                    <mxGeometry x="-0.1738" y="-2" relative="1" as="geometry">
                        <mxPoint y="-5" as="offset"/>
                    </mxGeometry>
                </mxCell>
                <mxCell id="RBc-7hYAv_kwspDDTOig-2" value="Διαχειρηστής" style="rounded=1;whiteSpace=wrap;html=1;fillColor=#b1ddf0;strokeColor=#10739e;sketch=1;curveFitting=1;jiggle=2;" parent="1" vertex="1">
                    <mxGeometry x="50" y="250" width="120" height="60" as="geometry"/>
                </mxCell>
                <mxCell id="RBc-7hYAv_kwspDDTOig-16" style="edgeStyle=none;shape=connector;curved=1;rounded=1;orthogonalLoop=1;jettySize=auto;html=1;exitX=0;exitY=0.25;exitDx=0;exitDy=0;entryX=1;entryY=0;entryDx=0;entryDy=0;strokeColor=default;align=center;verticalAlign=middle;fontFamily=Helvetica;fontSize=11;fontColor=default;labelBackgroundColor=default;elbow=vertical;endArrow=classic;sketch=1;curveFitting=1;jiggle=2;" parent="1" source="RBc-7hYAv_kwspDDTOig-3" target="RBc-7hYAv_kwspDDTOig-1" edge="1">
                    <mxGeometry relative="1" as="geometry">
                        <Array as="points">
                            <mxPoint x="510" y="190"/>
                        </Array>
                    </mxGeometry>
                </mxCell>
                <mxCell id="RBc-7hYAv_kwspDDTOig-17" value="&lt;div&gt;Εισοδος&lt;/div&gt;" style="edgeLabel;html=1;align=center;verticalAlign=middle;resizable=0;points=[];fontFamily=Helvetica;fontSize=11;fontColor=default;labelBackgroundColor=default;sketch=1;curveFitting=1;jiggle=2;rounded=1;" parent="RBc-7hYAv_kwspDDTOig-16" vertex="1" connectable="0">
                    <mxGeometry x="0.3271" y="22" relative="1" as="geometry">
                        <mxPoint as="offset"/>
                    </mxGeometry>
                </mxCell>
                <mxCell id="RBc-7hYAv_kwspDDTOig-18" style="edgeStyle=none;shape=connector;curved=1;rounded=1;orthogonalLoop=1;jettySize=auto;html=1;exitX=0;exitY=0.5;exitDx=0;exitDy=0;strokeColor=default;align=center;verticalAlign=middle;fontFamily=Helvetica;fontSize=11;fontColor=default;labelBackgroundColor=default;elbow=vertical;endArrow=classic;sketch=1;curveFitting=1;jiggle=2;" parent="1" source="RBc-7hYAv_kwspDDTOig-3" target="RBc-7hYAv_kwspDDTOig-1" edge="1">
                    <mxGeometry relative="1" as="geometry">
                        <Array as="points">
                            <mxPoint x="510" y="270"/>
                        </Array>
                    </mxGeometry>
                </mxCell>
                <mxCell id="RBc-7hYAv_kwspDDTOig-19" value="&lt;div&gt;Διαχειρηση&lt;/div&gt;&lt;div&gt;πελατων&lt;/div&gt;" style="edgeLabel;html=1;align=center;verticalAlign=middle;resizable=0;points=[];fontFamily=Helvetica;fontSize=11;fontColor=default;labelBackgroundColor=default;sketch=1;curveFitting=1;jiggle=2;rounded=1;" parent="RBc-7hYAv_kwspDDTOig-18" vertex="1" connectable="0">
                    <mxGeometry x="0.1342" y="4" relative="1" as="geometry">
                        <mxPoint as="offset"/>
                    </mxGeometry>
                </mxCell>
                <mxCell id="RBc-7hYAv_kwspDDTOig-3" value="Ταξιδιοτικός Πράκτορας" style="rounded=1;whiteSpace=wrap;html=1;fillColor=#b1ddf0;strokeColor=#10739e;sketch=1;curveFitting=1;jiggle=2;" parent="1" vertex="1">
                    <mxGeometry x="600" y="250" width="120" height="60" as="geometry"/>
                </mxCell>
                <mxCell id="RBc-7hYAv_kwspDDTOig-14" style="edgeStyle=none;shape=connector;curved=1;rounded=1;orthogonalLoop=1;jettySize=auto;html=1;exitX=0.5;exitY=1;exitDx=0;exitDy=0;entryX=0.57;entryY=1.01;entryDx=0;entryDy=0;entryPerimeter=0;strokeColor=default;align=center;verticalAlign=middle;fontFamily=Helvetica;fontSize=11;fontColor=default;labelBackgroundColor=default;elbow=vertical;endArrow=classic;sketch=1;curveFitting=1;jiggle=2;" parent="1" source="RBc-7hYAv_kwspDDTOig-2" target="RBc-7hYAv_kwspDDTOig-1" edge="1">
                    <mxGeometry relative="1" as="geometry">
                        <Array as="points">
                            <mxPoint x="170" y="540"/>
                        </Array>
                    </mxGeometry>
                </mxCell>
                <mxCell id="RBc-7hYAv_kwspDDTOig-15" value="&lt;div&gt;Εγγρηση/απορρηψη&lt;/div&gt;&lt;div&gt;εκδρομης&lt;/div&gt;" style="edgeLabel;html=1;align=center;verticalAlign=middle;resizable=0;points=[];fontFamily=Helvetica;fontSize=11;fontColor=default;labelBackgroundColor=default;sketch=1;curveFitting=1;jiggle=2;rounded=1;" parent="RBc-7hYAv_kwspDDTOig-14" vertex="1" connectable="0">
                    <mxGeometry x="-0.6306" y="20" relative="1" as="geometry">
                        <mxPoint x="-5" y="7" as="offset"/>
                    </mxGeometry>
                </mxCell>
                <mxCell id="RBc-7hYAv_kwspDDTOig-20" style="edgeStyle=none;shape=connector;curved=1;rounded=1;orthogonalLoop=1;jettySize=auto;html=1;exitX=0;exitY=0.75;exitDx=0;exitDy=0;entryX=0.978;entryY=0.702;entryDx=0;entryDy=0;entryPerimeter=0;strokeColor=default;align=center;verticalAlign=middle;fontFamily=Helvetica;fontSize=11;fontColor=default;labelBackgroundColor=default;elbow=vertical;endArrow=classic;sketch=1;curveFitting=1;jiggle=2;" parent="1" source="RBc-7hYAv_kwspDDTOig-3" target="RBc-7hYAv_kwspDDTOig-1" edge="1">
                    <mxGeometry relative="1" as="geometry">
                        <Array as="points">
                            <mxPoint x="500" y="340"/>
                        </Array>
                    </mxGeometry>
                </mxCell>
                <mxCell id="RBc-7hYAv_kwspDDTOig-21" value="&lt;div&gt;Δημιουργια &lt;br&gt;&lt;/div&gt;&lt;div&gt;κρατησης&lt;/div&gt;" style="edgeLabel;html=1;align=center;verticalAlign=middle;resizable=0;points=[];fontFamily=Helvetica;fontSize=11;fontColor=default;labelBackgroundColor=default;sketch=1;curveFitting=1;jiggle=2;rounded=1;" parent="RBc-7hYAv_kwspDDTOig-20" vertex="1" connectable="0">
                    <mxGeometry x="0.2556" y="-11" relative="1" as="geometry">
                        <mxPoint y="1" as="offset"/>
                    </mxGeometry>
                </mxCell>
                <mxCell id="RBc-7hYAv_kwspDDTOig-22" style="edgeStyle=none;shape=connector;curved=1;rounded=1;orthogonalLoop=1;jettySize=auto;html=1;exitX=0.25;exitY=1;exitDx=0;exitDy=0;entryX=0.812;entryY=0.918;entryDx=0;entryDy=0;entryPerimeter=0;strokeColor=default;align=center;verticalAlign=middle;fontFamily=Helvetica;fontSize=11;fontColor=default;labelBackgroundColor=default;elbow=vertical;endArrow=classic;sketch=1;curveFitting=1;jiggle=2;" parent="1" source="RBc-7hYAv_kwspDDTOig-3" target="RBc-7hYAv_kwspDDTOig-1" edge="1">
                    <mxGeometry relative="1" as="geometry">
                        <Array as="points">
                            <mxPoint x="570" y="420"/>
                        </Array>
                    </mxGeometry>
                </mxCell>
                <mxCell id="RBc-7hYAv_kwspDDTOig-23" value="&lt;div&gt;Δημιουργια&lt;/div&gt;&lt;div&gt;γκρουπ&lt;/div&gt;" style="edgeLabel;html=1;align=center;verticalAlign=middle;resizable=0;points=[];fontFamily=Helvetica;fontSize=11;fontColor=default;labelBackgroundColor=default;sketch=1;curveFitting=1;jiggle=2;rounded=1;" parent="RBc-7hYAv_kwspDDTOig-22" vertex="1" connectable="0">
                    <mxGeometry x="0.1831" y="-27" relative="1" as="geometry">
                        <mxPoint as="offset"/>
                    </mxGeometry>
                </mxCell>
                <mxCell id="RBc-7hYAv_kwspDDTOig-24" style="edgeStyle=none;shape=connector;curved=1;rounded=1;orthogonalLoop=1;jettySize=auto;html=1;exitX=0.5;exitY=0;exitDx=0;exitDy=0;entryX=0.445;entryY=0.035;entryDx=0;entryDy=0;entryPerimeter=0;strokeColor=default;align=center;verticalAlign=middle;fontFamily=Helvetica;fontSize=11;fontColor=default;labelBackgroundColor=default;elbow=vertical;endArrow=classic;sketch=1;curveFitting=1;jiggle=2;" parent="1" source="RBc-7hYAv_kwspDDTOig-2" target="RBc-7hYAv_kwspDDTOig-1" edge="1">
                    <mxGeometry relative="1" as="geometry">
                        <Array as="points">
                            <mxPoint x="210" y="110"/>
                        </Array>
                    </mxGeometry>
                </mxCell>
                <mxCell id="RBc-7hYAv_kwspDDTOig-25" value="&lt;div&gt;Προβολη&lt;/div&gt;&lt;div&gt;στατιστηκων&lt;/div&gt;" style="edgeLabel;html=1;align=center;verticalAlign=middle;resizable=0;points=[];fontFamily=Helvetica;fontSize=11;fontColor=default;labelBackgroundColor=default;sketch=1;curveFitting=1;jiggle=2;rounded=1;" parent="RBc-7hYAv_kwspDDTOig-24" vertex="1" connectable="0">
                    <mxGeometry x="-0.48" y="-26" relative="1" as="geometry">
                        <mxPoint as="offset"/>
                    </mxGeometry>
                </mxCell>
                <mxCell id="RBc-7hYAv_kwspDDTOig-26" style="edgeStyle=none;shape=connector;curved=1;rounded=1;orthogonalLoop=1;jettySize=auto;html=1;exitX=0.25;exitY=0;exitDx=0;exitDy=0;entryX=0.645;entryY=0.035;entryDx=0;entryDy=0;entryPerimeter=0;strokeColor=default;align=center;verticalAlign=middle;fontFamily=Helvetica;fontSize=11;fontColor=default;labelBackgroundColor=default;elbow=vertical;endArrow=classic;sketch=1;curveFitting=1;jiggle=2;" parent="1" source="RBc-7hYAv_kwspDDTOig-3" target="RBc-7hYAv_kwspDDTOig-1" edge="1">
                    <mxGeometry relative="1" as="geometry">
                        <Array as="points">
                            <mxPoint x="560" y="140"/>
                        </Array>
                    </mxGeometry>
                </mxCell>
                <mxCell id="RBc-7hYAv_kwspDDTOig-27" value="&lt;div&gt;Προβολη&lt;/div&gt;&lt;div&gt;στατιστηκων&lt;/div&gt;" style="edgeLabel;html=1;align=center;verticalAlign=middle;resizable=0;points=[];fontFamily=Helvetica;fontSize=11;fontColor=default;labelBackgroundColor=default;sketch=1;curveFitting=1;jiggle=2;rounded=1;" parent="RBc-7hYAv_kwspDDTOig-26" vertex="1" connectable="0">
                    <mxGeometry x="0.1358" y="27" relative="1" as="geometry">
                        <mxPoint y="-1" as="offset"/>
                    </mxGeometry>
                </mxCell>
            </root>
        </mxGraphModel>
    </diagram>
</mxfile>